<svg width="290" height="301" viewBox="0 0 290 301" fill="none" xmlns="http://www.w3.org/2000/svg">
<g filter="url(#filter0_d_73_7)">
<rect x="67" y="41" width="140" height="140" rx="70" fill="white" shape-rendering="crispEdges"/>
<g filter="url(#filter1_d_73_7)">
<rect x="77" y="162" width="30" height="30" rx="15" fill="white" shape-rendering="crispEdges"/>
<rect x="77.5" y="162.5" width="29" height="29" rx="14.5" stroke="#E8E8E8" shape-rendering="crispEdges"/>
<path d="M93.1591 184.438V181.734H88.0231V180.486L93.6071 173.27H94.5671V180.454H95.9751V181.734H94.5671V184.438H93.1591ZM89.4791 180.454H93.3031V175.446L89.4791 180.454Z" fill="#212529"/>
</g>
<path d="M169 100.643C168.993 96.9574 167.532 93.4287 164.934 90.8228C162.335 88.2172 158.816 86.7523 155.141 86.7487H120.285V76.0123C120.285 75.4527 119.83 75 119.271 75H112.642C108.423 75 105 78.4325 105 82.6635V123.32C105.007 127.123 108.082 130.202 111.874 130.206H129.249L125.446 144.443C125.339 144.838 125.481 145.259 125.805 145.509C126.132 145.758 126.573 145.787 126.928 145.583L131.45 142.96L134.059 147.49V147.494C134.24 147.808 134.574 148 134.937 148C134.979 148 135.022 147.996 135.068 147.989C135.473 147.939 135.807 147.644 135.914 147.248L138.975 135.774L139.497 136.102C140.489 136.733 141.765 136.708 142.732 136.038L143.229 135.699L146.315 147.248C146.421 147.644 146.755 147.936 147.161 147.989C147.203 147.996 147.246 148 147.292 148C147.651 148 147.985 147.804 148.167 147.49L150.776 142.96L155.293 145.58C155.645 145.783 156.09 145.754 156.413 145.505C156.737 145.255 156.879 144.835 156.776 144.439L156.111 141.958H162.125C165.918 141.955 168.993 138.871 168.996 135.068L169 100.643ZM155.141 88.7806C161.675 88.7878 166.967 94.0916 166.978 100.643V130.192C165.695 128.905 163.95 128.178 162.13 128.182H153.915L155.941 126.475C156.848 125.722 157.217 124.5 156.88 123.374L156.062 120.554H156.059C156.009 120.394 156.005 120.223 156.051 120.062L156.937 116.491V116.487C157.228 115.346 156.812 114.138 155.877 113.425L153.563 111.622C153.428 111.525 153.325 111.386 153.268 111.23L151.889 107.818C151.455 106.721 150.41 105.99 149.237 105.965L146.312 105.872H146.308C146.141 105.872 145.981 105.822 145.843 105.73L142.725 103.78C141.734 103.149 140.461 103.174 139.491 103.844L137.07 105.494C136.935 105.591 136.775 105.648 136.608 105.655L132.943 105.915C131.77 105.99 130.757 106.76 130.366 107.872L129.375 110.634C129.321 110.795 129.225 110.934 129.094 111.037L126.282 113.411H126.286C125.379 114.163 125.01 115.386 125.344 116.512L126.161 119.331L126.165 119.335C126.215 119.492 126.218 119.663 126.172 119.823L125.287 123.395L125.291 123.398C124.996 124.539 125.411 125.747 126.346 126.46L128.561 128.182H112.644C109.701 128.178 107.255 125.897 107.042 122.949C107.241 120.419 109.342 118.465 111.876 118.462H119.277H119.273C119.831 118.462 120.286 118.009 120.286 117.449V88.7807L155.141 88.7806ZM107.027 82.6641C107.031 79.556 109.544 77.0359 112.643 77.0323H118.263V116.426H111.876C110.056 116.426 108.31 117.15 107.027 118.44L107.027 82.6641ZM134.585 144.36L132.691 141.07H132.694C132.413 140.586 131.795 140.418 131.312 140.7L128.031 142.596L130.679 132.691C131.212 133.443 132.069 133.896 132.989 133.917L135.915 134.01C136.082 134.01 136.245 134.06 136.384 134.152L137.184 134.651L134.585 144.36ZM141.591 134.362H141.595C141.289 134.58 140.88 134.587 140.564 134.38L137.457 132.43C137.017 132.152 136.505 131.995 135.982 131.981L133.057 131.889L133.053 131.892C132.68 131.889 132.346 131.653 132.211 131.3L131.201 128.805V128.798L130.839 127.886C130.647 127.397 130.327 126.97 129.911 126.652L127.597 124.852C127.295 124.628 127.16 124.243 127.259 123.879L128.144 120.308C128.276 119.798 128.265 119.26 128.116 118.754L127.298 115.934L127.295 115.938C127.181 115.578 127.302 115.186 127.593 114.95L130.405 112.576C130.807 112.241 131.112 111.803 131.287 111.308L132.271 108.559C132.388 108.203 132.715 107.957 133.089 107.939L136.753 107.679C137.276 107.643 137.777 107.469 138.207 107.173L140.628 105.522L140.631 105.519C140.784 105.412 140.969 105.351 141.158 105.351C141.335 105.351 141.509 105.405 141.659 105.501L144.776 107.451H144.773C145.217 107.729 145.725 107.886 146.248 107.9L149.173 107.993L149.177 107.989C149.55 107.993 149.884 108.228 150.019 108.581L151.398 111.992H151.395C151.59 112.48 151.91 112.904 152.326 113.225L154.64 115.025C154.942 115.246 155.077 115.635 154.978 115.998L154.092 119.57C153.961 120.08 153.972 120.618 154.121 121.12L154.938 123.94H154.942C155.056 124.3 154.935 124.692 154.643 124.927L151.832 127.301V127.298C151.43 127.633 151.124 128.071 150.95 128.566L149.959 131.329C149.838 131.685 149.514 131.935 149.141 131.953L145.48 132.213H145.476C144.954 132.245 144.453 132.42 144.023 132.719L141.591 134.362ZM150.911 140.7C150.68 140.564 150.403 140.529 150.143 140.6C149.887 140.668 149.667 140.839 149.532 141.07L147.637 144.36L145 134.495L145.153 134.391C145.288 134.295 145.448 134.238 145.615 134.231L149.276 133.971H149.28C150.193 133.914 151.032 133.425 151.537 132.655L154.196 142.6L150.911 140.7ZM162.129 139.93H155.575L152.976 130.206H162.129C163.427 130.189 164.678 130.691 165.602 131.607C166.526 132.52 167.045 133.767 167.045 135.068C167.045 136.369 166.526 137.613 165.602 138.526C164.678 139.442 163.427 139.944 162.129 139.927L162.129 139.93ZM148.853 112.177C145.721 109.041 141.015 108.107 136.928 109.803C132.84 111.504 130.178 115.503 130.178 119.94C130.178 124.378 132.84 128.377 136.928 130.077C141.015 131.774 145.722 130.84 148.853 127.703C153.122 123.412 153.122 116.469 148.853 112.176V112.177ZM141.111 128.887C136.856 128.883 133.199 125.868 132.37 121.683C131.546 117.499 133.782 113.31 137.713 111.681C141.644 110.049 146.176 111.432 148.537 114.978C150.897 118.529 150.431 123.255 147.424 126.271C145.75 127.949 143.478 128.89 141.111 128.887ZM148.195 118.251C148.071 117.866 147.73 117.595 147.328 117.556L143.546 117.199L142.039 113.703H142.035C141.875 113.332 141.513 113.09 141.108 113.09C140.706 113.09 140.34 113.332 140.18 113.703L138.673 117.199L134.891 117.556C134.489 117.595 134.148 117.866 134.024 118.251C133.899 118.636 134.013 119.06 134.319 119.327L137.169 121.847L136.341 125.565L136.337 125.561C136.249 125.957 136.401 126.367 136.729 126.606C137.056 126.841 137.493 126.862 137.841 126.656L141.111 124.717L144.382 126.656H144.378C144.726 126.862 145.164 126.841 145.487 126.606C145.814 126.367 145.97 125.957 145.882 125.561L145.05 121.844L147.901 119.324V119.327C148.203 119.06 148.32 118.636 148.195 118.251ZM143.265 120.714V120.717C142.988 120.96 142.867 121.338 142.945 121.698L143.4 123.712L141.626 122.66L141.63 122.664C141.31 122.475 140.916 122.475 140.599 122.664L138.822 123.715L139.27 121.701V121.698C139.352 121.338 139.231 120.96 138.953 120.717L137.407 119.349L139.458 119.156V119.153C139.824 119.121 140.144 118.885 140.29 118.547L141.107 116.65L141.925 118.547H141.929C142.074 118.885 142.394 119.121 142.76 119.153L144.811 119.345L143.265 120.714ZM126.9 94.3803C126.9 94.1094 127.007 93.8527 127.199 93.6603C127.387 93.4714 127.647 93.3644 127.913 93.3644H154.313C154.871 93.3644 155.326 93.8207 155.326 94.3803C155.326 94.9399 154.871 95.3926 154.313 95.3926H127.91C127.352 95.3926 126.9 94.9363 126.9 94.3803ZM126.9 100.301C126.9 100.03 127.007 99.7733 127.199 99.5808C127.387 99.3919 127.647 99.2849 127.913 99.2849H154.313C154.861 99.3028 155.298 99.7519 155.298 100.297C155.298 100.846 154.86 101.295 154.313 101.313H127.91C127.352 101.31 126.904 100.857 126.9 100.301Z" fill="black"/>
</g>
<defs>
<filter id="filter0_d_73_7" x="0" y="0" width="290" height="301" filterUnits="userSpaceOnUse" color-interpolation-filters="sRGB">
<feFlood flood-opacity="0" result="BackgroundImageFix"/>
<feColorMatrix in="SourceAlpha" type="matrix" values="0 0 0 0 0 0 0 0 0 0 0 0 0 0 0 0 0 0 127 0" result="hardAlpha"/>
<feOffset dx="8" dy="34"/>
<feGaussianBlur stdDeviation="37.5"/>
<feComposite in2="hardAlpha" operator="out"/>
<feColorMatrix type="matrix" values="0 0 0 0 0.0588235 0 0 0 0 0.054902 0 0 0 0 0.054902 0 0 0 0.25 0"/>
<feBlend mode="normal" in2="BackgroundImageFix" result="effect1_dropShadow_73_7"/>
<feBlend mode="normal" in="SourceGraphic" in2="effect1_dropShadow_73_7" result="shape"/>
</filter>
<filter id="filter1_d_73_7" x="10" y="121" width="180" height="180" filterUnits="userSpaceOnUse" color-interpolation-filters="sRGB">
<feFlood flood-opacity="0" result="BackgroundImageFix"/>
<feColorMatrix in="SourceAlpha" type="matrix" values="0 0 0 0 0 0 0 0 0 0 0 0 0 0 0 0 0 0 127 0" result="hardAlpha"/>
<feOffset dx="8" dy="34"/>
<feGaussianBlur stdDeviation="37.5"/>
<feComposite in2="hardAlpha" operator="out"/>
<feColorMatrix type="matrix" values="0 0 0 0 0.0588235 0 0 0 0 0.054902 0 0 0 0 0.054902 0 0 0 0.25 0"/>
<feBlend mode="normal" in2="BackgroundImageFix" result="effect1_dropShadow_73_7"/>
<feBlend mode="normal" in="SourceGraphic" in2="effect1_dropShadow_73_7" result="shape"/>
</filter>
</defs>
</svg>
