<svg width="290" height="301" viewBox="0 0 290 301" fill="none" xmlns="http://www.w3.org/2000/svg">
<g filter="url(#filter0_d_73_4)">
<rect x="67" y="41" width="140" height="140" rx="70" fill="white" shape-rendering="crispEdges"/>
<g filter="url(#filter1_d_73_4)">
<rect x="77" y="162" width="30" height="30" rx="15" fill="white" shape-rendering="crispEdges"/>
<rect x="77.5" y="162.5" width="29" height="29" rx="14.5" stroke="#E8E8E8" shape-rendering="crispEdges"/>
<path d="M95.3066 181.126V182.406H89.5626V181.126H91.8346V174.886C91.7386 175.014 91.5893 175.153 91.3866 175.302C91.184 175.441 90.9546 175.574 90.6986 175.702C90.4426 175.83 90.1866 175.937 89.9306 176.022C89.6746 176.097 89.44 176.134 89.2266 176.134V174.79C89.4613 174.79 89.7173 174.726 89.9946 174.598C90.2826 174.46 90.56 174.3 90.8266 174.118C91.0933 173.937 91.3173 173.766 91.4986 173.606C91.6906 173.446 91.8026 173.334 91.8346 173.27H93.2746V181.126H95.3066Z" fill="#212529"/>
</g>
</g>
<path d="M122.002 134.001H114.003C112.35 134.001 111.002 132.657 111.002 131V88.0008H153.001V127.001C153.001 127.552 153.448 128.002 154.002 128.002C154.556 128.002 155.003 127.555 155.003 127.001L155 83.0005C155 80.2443 152.756 78 150 78L114.001 78.0028C111.244 78.0028 109 80.2472 109 83.0033V131.003C109 133.759 111.244 136.004 114.001 136.004H121.999C122.553 136.004 123 135.557 123 135.003C123 134.451 122.553 134.001 121.999 134.001L122.002 134.001ZM111.002 83.0005C111.002 81.3468 112.347 79.9996 114.003 79.9996H150.003C151.656 79.9996 153.004 81.344 153.004 83.0005V86.0014H111.002V83.0005Z" fill="black"/>
<path d="M116.002 82.0022H115.001C114.447 82.0022 114 82.4494 114 83.0034C114 83.5546 114.447 84.0046 115.001 84.0046H116.002C116.556 84.0046 117.004 83.5574 117.004 83.0034C117.004 82.4522 116.556 82.0022 116.002 82.0022Z" fill="black"/>
<path d="M121.001 82.0023H120C119.445 82.0023 118.998 82.4495 118.998 83.0035C118.998 83.5548 119.445 84.0047 120 84.0047H121.001C121.555 84.0047 122.002 83.5576 122.002 83.0035C122.002 82.4523 121.555 82.0023 121.001 82.0023Z" fill="black"/>
<path d="M126 82.0022H124.999C124.445 82.0022 123.998 82.4494 123.998 83.0034C123.998 83.5546 124.445 84.0046 124.999 84.0046H126C126.555 84.0046 127.002 83.5574 127.002 83.0034C127.002 82.4522 126.555 82.0022 126 82.0022Z" fill="black"/>
<path d="M126.001 116.002H141C144.307 116.002 146.999 113.31 146.999 110.003C146.999 106.695 144.307 104.004 141 104.004L118.003 104.001C117.452 104.001 117.002 103.551 117.002 103V95.0014C117.002 94.4502 117.449 94.0002 118.003 94.0002H146.004C146.555 94.0002 147.005 94.4502 147.005 95.0014V103C147.005 103.551 147.452 104.001 148.006 104.001C148.56 104.001 149.007 103.554 149.007 103V95.0014C149.007 93.3477 147.663 92.0005 146.006 92.0005H118.003C116.349 92.0005 115.002 93.3448 115.002 95.0014V103C115.002 104.653 116.346 106.001 118.003 106.001H141.003C143.207 106.001 145.002 107.795 145.002 110C145.002 112.205 143.207 113.999 141.003 113.999H126.004C122.696 113.999 120.005 116.691 120.005 119.998C120.005 123.306 122.696 125.997 126.004 125.997H138.005C139.658 125.997 141.005 127.341 141.005 128.998C141.005 130.652 139.661 131.999 138.005 131.999H131.004C127.697 131.999 125.005 134.69 125.005 137.998C125.005 141.305 127.697 143.997 131.004 143.997H143.005C143.559 143.997 144.006 143.549 144.006 142.995C144.006 142.444 143.559 141.994 143.005 141.994H131.004C128.799 141.994 127.005 140.2 127.005 137.995C127.005 135.79 128.799 133.996 131.004 133.996H138.005C140.761 133.996 143.005 131.751 143.005 128.995C143.005 126.239 140.761 123.995 138.005 123.995H126.004C123.799 123.995 122.005 122.2 122.005 119.995C122.005 117.79 123.799 115.996 126.004 115.996L126.001 116.002Z" fill="black"/>
<path d="M175 121.003C175 120.092 174.645 119.234 173.998 118.59L173.413 118.002C172.122 116.714 169.875 116.711 168.584 118.002L157.562 129.024C153.355 129.252 149.999 132.739 149.999 137.003C149.999 138.569 149.251 140.063 148 141.002L146.399 142.203C146.056 142.462 145.916 142.912 146.051 143.32C146.186 143.728 146.568 144.003 146.999 144.003H155.998C159.857 144.003 162.999 140.864 162.999 137.003V134.418L173.998 123.419C174.642 122.775 174.999 121.917 174.999 121.003L175 121.003ZM156.001 142H149.898C151.229 140.693 152.002 138.884 152.002 137C152.002 133.825 154.483 131.223 157.607 131.021L161.002 134.415V137C161.002 139.756 158.757 142 156.001 142ZM172.586 122.001L162 132.587L159.416 130.003L170.002 119.417C170.536 118.882 171.467 118.882 172.001 119.417L172.586 120.005C172.853 120.272 173 120.626 173 121.003C173 121.38 172.853 121.737 172.586 122.004V122.001Z" fill="black"/>
<defs>
<filter id="filter0_d_73_4" x="0" y="0" width="290" height="301" filterUnits="userSpaceOnUse" color-interpolation-filters="sRGB">
<feFlood flood-opacity="0" result="BackgroundImageFix"/>
<feColorMatrix in="SourceAlpha" type="matrix" values="0 0 0 0 0 0 0 0 0 0 0 0 0 0 0 0 0 0 127 0" result="hardAlpha"/>
<feOffset dx="8" dy="34"/>
<feGaussianBlur stdDeviation="37.5"/>
<feComposite in2="hardAlpha" operator="out"/>
<feColorMatrix type="matrix" values="0 0 0 0 0.0588235 0 0 0 0 0.054902 0 0 0 0 0.054902 0 0 0 0.25 0"/>
<feBlend mode="normal" in2="BackgroundImageFix" result="effect1_dropShadow_73_4"/>
<feBlend mode="normal" in="SourceGraphic" in2="effect1_dropShadow_73_4" result="shape"/>
</filter>
<filter id="filter1_d_73_4" x="10" y="121" width="180" height="180" filterUnits="userSpaceOnUse" color-interpolation-filters="sRGB">
<feFlood flood-opacity="0" result="BackgroundImageFix"/>
<feColorMatrix in="SourceAlpha" type="matrix" values="0 0 0 0 0 0 0 0 0 0 0 0 0 0 0 0 0 0 127 0" result="hardAlpha"/>
<feOffset dx="8" dy="34"/>
<feGaussianBlur stdDeviation="37.5"/>
<feComposite in2="hardAlpha" operator="out"/>
<feColorMatrix type="matrix" values="0 0 0 0 0.0588235 0 0 0 0 0.054902 0 0 0 0 0.054902 0 0 0 0.25 0"/>
<feBlend mode="normal" in2="BackgroundImageFix" result="effect1_dropShadow_73_4"/>
<feBlend mode="normal" in="SourceGraphic" in2="effect1_dropShadow_73_4" result="shape"/>
</filter>
</defs>
</svg>
