<svg width="290" height="301" viewBox="0 0 290 301" fill="none" xmlns="http://www.w3.org/2000/svg">
<g filter="url(#filter0_d_73_6)">
<rect x="67" y="41" width="140" height="140" rx="70" fill="white" shape-rendering="crispEdges"/>
<g filter="url(#filter1_d_73_6)">
<rect x="77" y="162" width="30" height="30" rx="15" fill="white" shape-rendering="crispEdges"/>
<rect x="77.5" y="162.5" width="29" height="29" rx="14.5" stroke="#E8E8E8" shape-rendering="crispEdges"/>
<path d="M93.4999 178.63C93.9585 178.705 94.3532 178.876 94.6839 179.142C95.0145 179.398 95.2705 179.729 95.4519 180.134C95.6332 180.529 95.7239 180.977 95.7239 181.478C95.7239 182.129 95.5639 182.7 95.2439 183.19C94.9345 183.692 94.4919 184.076 93.9159 184.342C93.3399 184.62 92.6679 184.758 91.8999 184.758C91.0892 184.758 90.3745 184.604 89.7559 184.294C89.1479 183.996 88.6732 183.569 88.3319 183.014L89.2759 182.07C89.5212 182.497 89.8519 182.838 90.2679 183.094C90.6945 183.35 91.2385 183.478 91.8999 183.478C92.6359 183.478 93.2119 183.308 93.6279 182.966C94.0545 182.636 94.2679 182.14 94.2679 181.478C94.2679 180.806 94.0385 180.273 93.5799 179.878C93.1319 179.473 92.4759 179.27 91.6119 179.27H91.1959V178.086H91.6439C92.4119 178.086 92.9985 177.9 93.4039 177.526C93.8199 177.153 94.0279 176.689 94.0279 176.134C94.0279 175.75 93.9372 175.436 93.7559 175.19C93.5745 174.945 93.3292 174.764 93.0199 174.646C92.7105 174.518 92.3532 174.454 91.9479 174.454C91.3612 174.454 90.8439 174.582 90.3959 174.838C89.9585 175.084 89.6172 175.43 89.3719 175.878L88.5079 174.982C88.6999 174.62 88.9719 174.305 89.3239 174.038C89.6865 173.772 90.1025 173.564 90.5719 173.414C91.0519 173.265 91.5585 173.19 92.0919 173.19C92.7639 173.19 93.3559 173.308 93.8679 173.542C94.3905 173.777 94.7959 174.108 95.0839 174.534C95.3719 174.961 95.5159 175.462 95.5159 176.038C95.5159 176.454 95.4359 176.849 95.2759 177.222C95.1159 177.585 94.8812 177.894 94.5719 178.15C94.2732 178.396 93.9159 178.556 93.4999 178.63Z" fill="#212529"/>
</g>
<path d="M123.731 147.168C122.868 147.168 122.169 147.868 122.169 148.731V152.899C122.169 153.762 122.868 154.461 123.731 154.461H161.231C162.094 154.461 162.794 153.762 162.794 152.899V138.86C162.782 135.391 160.966 132.176 157.997 130.379L154.7 128.399C154.337 127.731 153.696 127.258 152.95 127.102L145.606 125.633V122.618C148.411 121.313 150.84 119.313 152.665 116.809C153.083 116.911 153.508 116.961 153.938 116.961C156.594 116.961 158.907 115.133 159.516 112.547C160.126 109.961 158.876 107.293 156.497 106.11C156.524 105.746 156.544 105.368 156.544 104.981C156.672 100.012 154.825 95.1918 151.407 91.5789C147.993 87.9695 143.282 85.8562 138.313 85.7117C133.344 85.8562 128.633 87.9695 125.219 91.5789C121.801 95.1922 119.953 100.012 120.082 104.981C120.082 105.368 120.102 105.743 120.129 106.11C117.75 107.293 116.5 109.961 117.11 112.547C117.719 115.133 120.031 116.961 122.688 116.961C123.117 116.961 123.543 116.911 123.961 116.809C125.785 119.313 128.215 121.313 131.02 122.618V125.633L123.672 127.102H123.676C122.93 127.258 122.289 127.731 121.926 128.399L118.629 130.379C115.66 132.176 113.844 135.391 113.832 138.86V152.899C113.832 153.762 114.531 154.461 115.395 154.461H117.48C118.344 154.461 119.043 153.762 119.043 152.899C119.043 152.036 118.344 151.336 117.48 151.336H116.961L116.957 138.859C116.965 136.488 118.211 134.285 120.242 133.059L122.445 131.734L128.785 141.246V141.25C129.219 141.898 129.918 142.32 130.699 142.395C130.785 142.402 130.871 142.41 130.957 142.41C131.645 142.41 132.309 142.133 132.793 141.645L136.645 137.793H139.977L143.828 141.645H143.832C144.316 142.133 144.98 142.41 145.668 142.41C145.754 142.41 145.84 142.402 145.926 142.395C146.707 142.32 147.406 141.898 147.84 141.25L154.18 131.738L156.383 133.063V133.059C158.414 134.285 159.66 136.484 159.668 138.859V151.336H154.461L154.457 148.731C154.457 147.868 153.758 147.168 152.895 147.168C152.031 147.168 151.332 147.868 151.332 148.731V151.336H139.875V144.563C139.875 143.7 139.176 143.001 138.313 143.001C137.449 143.001 136.75 143.7 136.75 144.563V151.333H125.293V148.731C125.293 147.868 124.594 147.168 123.731 147.168ZM125.876 114.086C125.438 113.415 124.571 113.18 123.856 113.54C123.188 113.879 122.411 113.915 121.716 113.637C121.024 113.36 120.481 112.797 120.231 112.094C119.985 111.387 120.051 110.61 120.415 109.958C120.778 109.309 121.407 108.844 122.137 108.688C122.927 108.516 123.454 107.778 123.36 106.977C123.27 106.313 123.22 105.649 123.208 104.981C123.079 100.84 124.598 96.8169 127.427 93.79C130.259 90.7627 134.173 88.9814 138.314 88.8369C142.454 88.9814 146.368 90.7627 149.201 93.79C152.029 96.8173 153.548 100.841 153.419 104.981C153.419 105.157 153.388 105.329 153.38 105.501H141.575C141.396 105.504 141.224 105.407 141.13 105.251L136.872 98.1567C136.321 97.231 135.255 96.7426 134.196 96.9262C133.134 97.1098 132.298 97.9262 132.087 98.9848L130.868 105.083C130.817 105.325 130.603 105.501 130.357 105.501H127.896C127.032 105.501 126.333 106.2 126.333 107.063C126.333 107.926 127.032 108.626 127.896 108.626H130.357C132.095 108.622 133.587 107.399 133.931 105.696L134.884 100.919L138.45 106.86V106.856C139.11 107.954 140.298 108.622 141.575 108.625H154.341C154.388 108.649 154.439 108.672 154.49 108.688C155.22 108.844 155.849 109.309 156.212 109.958C156.576 110.61 156.642 111.387 156.396 112.094C156.146 112.797 155.603 113.36 154.912 113.637C154.216 113.915 153.439 113.879 152.771 113.54C152.056 113.18 151.185 113.415 150.751 114.086C149.029 116.821 146.482 118.934 143.478 120.129C142.877 120.36 142.482 120.942 142.482 121.586V126.211C142.287 126.403 142.123 126.625 141.998 126.868L138.521 133.821C138.423 134.032 138.353 134.254 138.314 134.485C138.275 134.254 138.205 134.032 138.103 133.821L134.626 126.868V126.864C134.501 126.622 134.341 126.403 134.146 126.211V121.586C134.146 120.942 133.751 120.36 133.15 120.129C130.146 118.934 127.598 116.821 125.876 114.086ZM131.036 138.984L125.055 130.012V130.016C125.165 130.004 125.278 129.98 125.383 129.945L132.008 128.621L135.141 134.879L131.036 138.984ZM145.595 138.984L141.485 134.879L144.618 128.621L151.228 129.941C151.337 129.984 151.45 130.012 151.568 130.027L145.595 138.984Z" fill="black"/>
<path d="M138.312 68C137.449 68 136.75 68.6992 136.75 69.5625V72.4102C134 73.1915 132.246 75.879 132.636 78.711C133.031 81.543 135.453 83.6524 138.312 83.6524C141.171 83.6524 143.593 81.543 143.988 78.711C144.379 75.879 142.625 73.1915 139.875 72.4102V69.5625C139.875 68.6992 139.175 68 138.312 68ZM140.918 77.8984C140.918 78.9492 140.281 79.8984 139.308 80.3046C138.336 80.7069 137.214 80.4843 136.472 79.7382C135.726 78.9921 135.504 77.8749 135.906 76.9023C136.308 75.9257 137.257 75.2929 138.312 75.2929C139.75 75.2929 140.914 76.4609 140.918 77.8984Z" fill="black"/>
<path d="M169.313 79.6216C169.02 79.3286 168.621 79.1646 168.207 79.1646C167.793 79.1646 167.395 79.3286 167.102 79.6216L163.602 83.1216C161.371 81.9302 158.625 82.3013 156.789 84.0396C155.715 85.1138 155.109 86.5708 155.105 88.0943C155.105 89.6138 155.711 91.0709 156.785 92.149C157.859 93.2232 159.316 93.8248 160.84 93.8248C162.359 93.8248 163.816 93.2193 164.891 92.1451V92.1411C166.691 90.3325 167.07 87.5473 165.824 85.3169L169.313 81.8286V81.8326C169.606 81.5396 169.77 81.1411 169.77 80.7271C169.77 80.313 169.606 79.9146 169.313 79.6216ZM162.684 89.9336C161.652 90.918 160.031 90.918 159 89.9336C158.254 89.1875 158.031 88.0703 158.434 87.0938C158.836 86.1211 159.789 85.4883 160.84 85.4883C161.895 85.4883 162.844 86.1211 163.246 87.0938C163.648 88.0703 163.426 89.1876 162.684 89.9336Z" fill="black"/>
<path d="M179.98 109.669H175.047C174.27 106.919 171.578 105.165 168.746 105.555C165.914 105.95 163.805 108.372 163.805 111.231C163.805 114.09 165.914 116.512 168.746 116.907C171.578 117.297 174.269 115.544 175.047 112.794H179.98C180.844 112.794 181.543 112.094 181.543 111.231C181.543 110.368 180.844 109.669 179.98 109.669ZM169.562 113.837C168.508 113.837 167.559 113.2 167.156 112.227C166.754 111.254 166.977 110.133 167.723 109.391C168.465 108.645 169.586 108.422 170.559 108.825C171.531 109.227 172.168 110.176 172.168 111.231C172.164 112.669 171 113.833 169.562 113.837Z" fill="black"/>
<path d="M111.125 90.6685C113.363 92.9029 116.984 92.899 119.219 90.6646C121.457 88.4302 121.457 84.8052 119.227 82.5669C117.391 80.8286 114.645 80.4575 112.414 81.6489L108.91 78.1489C108.617 77.856 108.223 77.688 107.805 77.688C107.391 77.688 106.992 77.852 106.699 78.145C106.406 78.4419 106.242 78.8364 106.242 79.2544C106.242 79.6685 106.41 80.0669 106.703 80.3599L110.191 83.8482V83.8443C108.945 86.0748 109.324 88.8599 111.125 90.6685ZM115.176 84.0162C116.227 84.0162 117.176 84.649 117.582 85.6217C117.984 86.5944 117.762 87.7155 117.016 88.4615C115.984 89.442 114.363 89.442 113.332 88.4615C112.586 87.7154 112.363 86.5943 112.769 85.6217C113.172 84.6491 114.121 84.0162 115.176 84.0162Z" fill="black"/>
<path d="M104.98 114.876C107.156 114.887 109.148 113.665 110.125 111.719C111.102 109.774 110.894 107.442 109.586 105.704C108.277 103.965 106.094 103.118 103.957 103.516C101.816 103.915 100.086 105.493 99.4961 107.587H94.5625C93.6992 107.587 93 108.286 93 109.149C93 110.012 93.6992 110.712 94.5625 110.712H99.4961C100.188 113.169 102.426 114.868 104.98 114.876ZM104.98 106.544C106.031 106.544 106.98 107.176 107.387 108.153C107.789 109.126 107.566 110.243 106.82 110.989C106.074 111.735 104.957 111.958 103.984 111.555C103.008 111.149 102.375 110.2 102.375 109.149C102.375 107.712 103.543 106.544 104.98 106.544Z" fill="black"/>
</g>
<defs>
<filter id="filter0_d_73_6" x="0" y="0" width="290" height="301" filterUnits="userSpaceOnUse" color-interpolation-filters="sRGB">
<feFlood flood-opacity="0" result="BackgroundImageFix"/>
<feColorMatrix in="SourceAlpha" type="matrix" values="0 0 0 0 0 0 0 0 0 0 0 0 0 0 0 0 0 0 127 0" result="hardAlpha"/>
<feOffset dx="8" dy="34"/>
<feGaussianBlur stdDeviation="37.5"/>
<feComposite in2="hardAlpha" operator="out"/>
<feColorMatrix type="matrix" values="0 0 0 0 0.0588235 0 0 0 0 0.054902 0 0 0 0 0.054902 0 0 0 0.25 0"/>
<feBlend mode="normal" in2="BackgroundImageFix" result="effect1_dropShadow_73_6"/>
<feBlend mode="normal" in="SourceGraphic" in2="effect1_dropShadow_73_6" result="shape"/>
</filter>
<filter id="filter1_d_73_6" x="10" y="121" width="180" height="180" filterUnits="userSpaceOnUse" color-interpolation-filters="sRGB">
<feFlood flood-opacity="0" result="BackgroundImageFix"/>
<feColorMatrix in="SourceAlpha" type="matrix" values="0 0 0 0 0 0 0 0 0 0 0 0 0 0 0 0 0 0 127 0" result="hardAlpha"/>
<feOffset dx="8" dy="34"/>
<feGaussianBlur stdDeviation="37.5"/>
<feComposite in2="hardAlpha" operator="out"/>
<feColorMatrix type="matrix" values="0 0 0 0 0.0588235 0 0 0 0 0.054902 0 0 0 0 0.054902 0 0 0 0.25 0"/>
<feBlend mode="normal" in2="BackgroundImageFix" result="effect1_dropShadow_73_6"/>
<feBlend mode="normal" in="SourceGraphic" in2="effect1_dropShadow_73_6" result="shape"/>
</filter>
</defs>
</svg>
