<svg width="291" height="301" viewBox="0 0 291 301" fill="none" xmlns="http://www.w3.org/2000/svg">
<g filter="url(#filter0_d_73_9)">
<rect x="67.4023" y="41" width="140" height="140" rx="70" fill="white" shape-rendering="crispEdges"/>
<g filter="url(#filter1_d_73_9)">
<rect x="77.4023" y="162" width="30" height="30" rx="15" fill="white" shape-rendering="crispEdges"/>
<rect x="77.9023" y="162.5" width="29" height="29" rx="14.5" stroke="#E8E8E8" shape-rendering="crispEdges"/>
<path d="M96.635 178.646C96.635 177.932 96.459 177.286 96.107 176.71C95.7656 176.134 95.2963 175.676 94.699 175.334C94.1123 174.993 93.451 174.822 92.715 174.822C92.2776 174.822 91.8616 174.897 91.467 175.046C91.083 175.196 90.747 175.409 90.459 175.686C90.171 175.953 89.947 176.273 89.787 176.646C89.7976 175.708 89.9203 174.908 90.155 174.246C90.4003 173.585 90.7416 173.078 91.179 172.726C91.6163 172.374 92.123 172.198 92.699 172.198C93.2643 172.198 93.7763 172.348 94.235 172.646C94.6936 172.934 95.0403 173.329 95.275 173.83L96.139 172.982C95.7976 172.353 95.323 171.862 94.715 171.51C94.1176 171.148 93.451 170.966 92.715 170.966C91.8616 170.966 91.115 171.217 90.475 171.718C89.835 172.209 89.339 172.95 88.987 173.942C88.635 174.934 88.459 176.177 88.459 177.67C88.459 178.684 88.6296 179.558 88.971 180.294C89.323 181.03 89.8083 181.596 90.427 181.99C91.0456 182.374 91.7603 182.566 92.571 182.566C93.339 182.566 94.027 182.39 94.635 182.038C95.2536 181.686 95.739 181.217 96.091 180.63C96.4536 180.033 96.635 179.372 96.635 178.646ZM92.587 181.35C92.0963 181.35 91.643 181.228 91.227 180.982C90.8216 180.737 90.4963 180.412 90.251 180.006C90.0056 179.59 89.883 179.137 89.883 178.646C89.883 178.156 90.0056 177.708 90.251 177.302C90.4963 176.897 90.8216 176.572 91.227 176.326C91.643 176.081 92.0963 175.958 92.587 175.958C93.0776 175.958 93.5256 176.081 93.931 176.326C94.347 176.572 94.6776 176.897 94.923 177.302C95.1683 177.708 95.291 178.156 95.291 178.646C95.291 179.137 95.1683 179.59 94.923 180.006C94.6776 180.412 94.347 180.737 93.931 180.982C93.5256 181.228 93.0776 181.35 92.587 181.35Z" fill="#212529"/>
</g>
<path d="M160.705 77H112.295C110.476 77.0027 109 78.487 109 80.3192V123.564C109 125.396 110.476 126.881 112.295 126.883H123.954C124.421 127.321 124.907 127.736 125.417 128.123C125.715 128.352 126.124 128.376 126.449 128.182L129.002 126.652C129.308 126.827 129.617 126.989 129.934 127.143V137.975L128.255 139.666C127.03 139.072 125.556 139.451 124.767 140.566C123.98 141.684 124.107 143.209 125.068 144.175C126.029 145.144 127.545 145.274 128.653 144.486C129.765 143.694 130.148 142.213 129.559 140.981L131.513 139.016C131.687 138.841 131.782 138.604 131.782 138.357V127.89C132.014 127.967 132.249 128.042 132.487 128.105L133.216 131.002H133.218C133.311 131.369 133.614 131.642 133.986 131.695C134.509 131.77 135.04 131.817 135.573 131.844V136.071C134.295 136.525 133.527 137.837 133.757 139.181C133.987 140.524 135.143 141.507 136.497 141.507C137.852 141.507 139.011 140.524 139.238 139.181C139.468 137.837 138.699 136.525 137.421 136.071V131.844C137.955 131.817 138.488 131.77 139.011 131.695H139.013C139.386 131.642 139.689 131.369 139.782 131.002L140.508 128.105C140.745 128.036 140.98 127.97 141.215 127.888V138.357C141.215 138.604 141.313 138.841 141.487 139.016L143.441 140.981L143.438 140.978C142.852 142.213 143.232 143.692 144.341 144.481C145.45 145.269 146.963 145.142 147.924 144.175C148.885 143.209 149.014 141.684 148.228 140.569C147.441 139.457 145.97 139.072 144.745 139.664L143.063 137.972V127.141C143.38 126.987 143.689 126.825 143.995 126.65L146.548 128.179V128.182C146.871 128.376 147.28 128.352 147.581 128.123C148.088 127.736 148.576 127.321 149.043 126.883H160.702C162.524 126.881 164 125.396 164 123.564V80.3193C164 78.4871 162.524 77.0027 160.705 77ZM127.054 143.118C126.679 143.118 126.338 142.89 126.196 142.54C126.05 142.189 126.13 141.788 126.396 141.52C126.663 141.254 127.064 141.175 127.41 141.318C127.759 141.464 127.986 141.807 127.983 142.184C127.983 142.702 127.566 143.118 127.054 143.118ZM146.871 142.184C146.868 142.561 146.641 142.901 146.295 143.044C145.946 143.187 145.548 143.108 145.284 142.84C145.02 142.571 144.941 142.17 145.086 141.823C145.228 141.475 145.569 141.246 145.944 141.249C146.189 141.249 146.424 141.347 146.599 141.523C146.773 141.698 146.871 141.937 146.871 142.184ZM112.295 78.8591H160.705C161.505 78.8618 162.152 79.515 162.152 80.3195V85.5452H110.848V80.3195C110.848 79.5149 111.495 78.8618 112.295 78.8591ZM136.5 139.64C136.125 139.64 135.787 139.412 135.642 139.064C135.499 138.713 135.578 138.312 135.845 138.044C136.109 137.776 136.51 137.696 136.856 137.842C137.205 137.986 137.432 138.326 137.432 138.703C137.432 138.952 137.334 139.191 137.16 139.366C136.983 139.542 136.748 139.64 136.5 139.64ZM146.952 126.257L144.468 124.77C144.172 124.594 143.803 124.597 143.509 124.78C142.282 125.545 140.941 126.105 139.533 126.437C139.198 126.517 138.934 126.78 138.85 127.117L138.147 129.929H138.145C137.052 130.038 135.948 130.038 134.855 129.929L134.145 127.114C134.063 126.777 133.799 126.514 133.464 126.435C132.059 126.103 130.715 125.542 129.49 124.778C129.197 124.594 128.827 124.592 128.532 124.77L126.05 126.257H126.047C125.197 125.556 124.416 124.77 123.721 123.915L125.202 121.424H125.2C125.379 121.124 125.377 120.752 125.192 120.455C124.429 119.223 123.874 117.874 123.547 116.461C123.468 116.121 123.206 115.853 122.871 115.771L120.07 115.059C120.015 114.509 119.985 113.957 119.985 113.405C119.985 112.852 120.012 112.3 120.067 111.75L122.869 111.039H122.871C123.206 110.954 123.468 110.688 123.547 110.348C123.874 108.936 124.429 107.584 125.192 106.352C125.377 106.057 125.379 105.683 125.2 105.386L123.721 102.9C124.416 102.043 125.197 101.259 126.047 100.558L128.529 102.045H128.532C128.827 102.223 129.197 102.218 129.49 102.035C130.715 101.27 132.059 100.712 133.464 100.378C133.799 100.298 134.06 100.038 134.145 99.7032L134.855 96.8885C135.948 96.777 137.052 96.777 138.145 96.8885L138.85 99.7005C138.934 100.038 139.198 100.301 139.533 100.38C140.941 100.712 142.282 101.273 143.509 102.037C143.803 102.22 144.172 102.223 144.468 102.045L146.95 100.558H146.952C147.802 101.259 148.584 102.043 149.278 102.9L147.8 105.388C147.62 105.686 147.623 106.06 147.808 106.355C148.571 107.587 149.125 108.939 149.453 110.351C149.532 110.691 149.793 110.957 150.128 111.042L152.924 111.751C152.977 112.306 153.006 112.86 153.006 113.407C153.006 113.954 152.98 114.507 152.924 115.064L150.126 115.773V115.771C149.788 115.856 149.529 116.124 149.45 116.461C149.123 117.876 148.565 119.225 147.802 120.457C147.62 120.752 147.615 121.127 147.794 121.427L149.276 123.917C148.579 124.772 147.802 125.556 146.952 126.257ZM160.705 125.022H150.77C150.897 124.865 151.019 124.706 151.14 124.547H151.137C151.364 124.247 151.388 123.835 151.195 123.511L149.672 120.946L149.669 120.943C150.298 119.841 150.784 118.662 151.116 117.436L153.997 116.705C154.364 116.615 154.638 116.304 154.688 115.927C154.915 114.255 154.915 112.555 154.688 110.88C154.638 110.503 154.364 110.197 153.997 110.104L151.116 109.374L151.114 109.377C150.781 108.15 150.295 106.971 149.669 105.866L151.193 103.301C151.386 102.977 151.364 102.566 151.137 102.263C150.121 100.914 148.925 99.7113 147.584 98.689C147.285 98.4606 146.876 98.4367 146.551 98.6306L143.998 100.16V100.163C142.9 99.5334 141.728 99.0448 140.511 98.7076L139.785 95.8106C139.692 95.4442 139.389 95.1707 139.016 95.1176C137.348 94.8866 135.658 94.8866 133.989 95.1176C133.617 95.1707 133.314 95.4442 133.221 95.8106L132.493 98.7076C131.273 99.0448 130.103 99.5334 129.005 100.163L126.449 98.6306C126.127 98.4367 125.718 98.4606 125.417 98.689C124.076 99.7113 122.882 100.914 121.866 102.263C121.636 102.566 121.615 102.975 121.808 103.301L123.331 105.866C122.705 106.968 122.22 108.147 121.887 109.374L119.004 110.104C118.64 110.197 118.365 110.503 118.315 110.88C118.083 112.555 118.083 114.257 118.315 115.935C118.365 116.312 118.64 116.618 119.004 116.708L121.884 117.438H121.887C122.22 118.665 122.705 119.844 123.331 120.946L121.808 123.511V123.514C121.615 123.838 121.636 124.249 121.866 124.549C121.987 124.709 122.109 124.868 122.235 125.025H112.301L112.298 125.027C111.913 125.025 111.546 124.871 111.274 124.597C111.002 124.324 110.849 123.952 110.849 123.564V87.4066H162.152V123.564C162.152 124.369 161.505 125.022 160.705 125.025L160.705 125.022ZM140.788 82.2047C140.785 81.9577 140.883 81.7214 141.057 81.5488C141.231 81.3735 141.466 81.2753 141.712 81.2753H157.706C157.957 81.2673 158.197 81.3629 158.376 81.5382C158.556 81.7134 158.656 81.9551 158.656 82.2047C158.656 82.4569 158.556 82.6959 158.376 82.8712C158.197 83.0464 157.957 83.142 157.706 83.134H141.712C141.466 83.134 141.231 83.0358 141.057 82.8632C140.883 82.6879 140.788 82.4516 140.788 82.2047ZM116.585 84.4325C117.48 84.4325 118.288 83.8908 118.631 83.057C118.974 82.2232 118.784 81.2647 118.15 80.6274C117.517 79.9901 116.564 79.8016 115.735 80.1468C114.908 80.492 114.367 81.3045 114.37 82.2046C114.372 83.4341 115.362 84.4298 116.585 84.4325ZM116.585 81.8355C116.733 81.8355 116.867 81.9258 116.923 82.0639C116.981 82.202 116.949 82.3613 116.844 82.4649C116.738 82.5711 116.579 82.6029 116.445 82.5472C116.308 82.4887 116.218 82.3533 116.218 82.2046C116.218 82.0028 116.381 81.8382 116.585 81.8355ZM127.544 84.4325C128.439 84.4325 129.247 83.8881 129.588 83.0544C129.931 82.2206 129.738 81.2647 129.105 80.6274C128.471 79.9901 127.518 79.8016 126.691 80.1468C125.862 80.492 125.324 81.3045 125.324 82.2046C125.327 83.4367 126.319 84.4325 127.544 84.4325ZM127.544 81.8355C127.692 81.8382 127.824 81.9285 127.88 82.0666C127.935 82.2046 127.903 82.3613 127.798 82.4675C127.692 82.5711 127.536 82.6029 127.399 82.5445C127.262 82.4887 127.172 82.3533 127.172 82.2046C127.175 82.1064 127.212 82.0134 127.283 81.9444C127.352 81.8727 127.447 81.8355 127.544 81.8355ZM122.066 84.4325C122.961 84.4325 123.769 83.8881 124.109 83.0544C124.453 82.2206 124.262 81.2647 123.626 80.6274C122.993 79.9901 122.039 79.8016 121.213 80.1468C120.387 80.492 119.845 81.3045 119.845 82.2046C119.848 83.4367 120.841 84.4325 122.066 84.4325ZM122.066 81.8355C122.214 81.8382 122.346 81.9285 122.401 82.0666C122.457 82.2046 122.425 82.3613 122.319 82.4675C122.216 82.5711 122.058 82.6029 121.921 82.5445C121.783 82.4887 121.696 82.3533 121.696 82.2046C121.696 82.1064 121.733 82.0134 121.804 81.9444C121.873 81.8727 121.968 81.8355 122.066 81.8355ZM136.499 102.22C132.808 102.218 129.355 104.061 127.285 107.136C125.218 110.21 124.798 114.117 126.171 117.566C127.544 121.013 130.527 123.551 134.134 124.34C134.173 124.35 134.213 124.361 134.255 124.369C135.731 124.672 137.252 124.672 138.727 124.369C138.778 124.361 138.825 124.35 138.873 124.334C142.474 123.54 145.452 121.002 146.82 117.558C148.187 114.111 147.767 110.208 145.7 107.138C143.633 104.066 140.188 102.223 136.499 102.22ZM135.335 122.658V117.085C135.335 116.713 135.113 116.376 134.77 116.23C133.421 115.654 132.444 114.44 132.167 112.99C131.887 111.543 132.341 110.051 133.381 109.007V112.881C133.381 113.216 133.556 113.521 133.843 113.689L136.035 114.961C136.322 115.125 136.674 115.125 136.959 114.961L139.153 113.689C139.438 113.521 139.615 113.216 139.615 112.881V109.007C140.652 110.051 141.106 111.543 140.829 112.99C140.552 114.437 139.575 115.654 138.229 116.232C137.885 116.376 137.664 116.713 137.664 117.087V122.661C136.89 122.762 136.109 122.762 135.335 122.661V122.658ZM139.514 122.226V117.666C141.592 116.517 142.846 114.283 142.751 111.899C142.656 109.514 141.231 107.388 139.068 106.405C138.781 106.275 138.45 106.301 138.186 106.471C137.922 106.644 137.764 106.936 137.764 107.252V112.348L136.499 113.081L135.229 112.348V107.252C135.229 106.936 135.068 106.644 134.804 106.471C134.54 106.301 134.21 106.275 133.923 106.405C131.76 107.388 130.335 109.514 130.242 111.902C130.15 114.286 131.407 116.519 133.484 117.666V122.228C129.199 120.747 126.604 116.365 127.351 111.867C128.096 107.372 131.966 104.076 136.499 104.076C141.032 104.076 144.903 107.372 145.647 111.867C146.395 116.365 143.799 120.746 139.514 122.228L139.514 122.226Z" fill="black"/>
</g>
<defs>
<filter id="filter0_d_73_9" x="0.402344" y="0" width="290" height="301" filterUnits="userSpaceOnUse" color-interpolation-filters="sRGB">
<feFlood flood-opacity="0" result="BackgroundImageFix"/>
<feColorMatrix in="SourceAlpha" type="matrix" values="0 0 0 0 0 0 0 0 0 0 0 0 0 0 0 0 0 0 127 0" result="hardAlpha"/>
<feOffset dx="8" dy="34"/>
<feGaussianBlur stdDeviation="37.5"/>
<feComposite in2="hardAlpha" operator="out"/>
<feColorMatrix type="matrix" values="0 0 0 0 0.0588235 0 0 0 0 0.054902 0 0 0 0 0.054902 0 0 0 0.25 0"/>
<feBlend mode="normal" in2="BackgroundImageFix" result="effect1_dropShadow_73_9"/>
<feBlend mode="normal" in="SourceGraphic" in2="effect1_dropShadow_73_9" result="shape"/>
</filter>
<filter id="filter1_d_73_9" x="10.4023" y="121" width="180" height="180" filterUnits="userSpaceOnUse" color-interpolation-filters="sRGB">
<feFlood flood-opacity="0" result="BackgroundImageFix"/>
<feColorMatrix in="SourceAlpha" type="matrix" values="0 0 0 0 0 0 0 0 0 0 0 0 0 0 0 0 0 0 127 0" result="hardAlpha"/>
<feOffset dx="8" dy="34"/>
<feGaussianBlur stdDeviation="37.5"/>
<feComposite in2="hardAlpha" operator="out"/>
<feColorMatrix type="matrix" values="0 0 0 0 0.0588235 0 0 0 0 0.054902 0 0 0 0 0.054902 0 0 0 0.25 0"/>
<feBlend mode="normal" in2="BackgroundImageFix" result="effect1_dropShadow_73_9"/>
<feBlend mode="normal" in="SourceGraphic" in2="effect1_dropShadow_73_9" result="shape"/>
</filter>
</defs>
</svg>
