<svg width="290" height="296" viewBox="0 0 290 296" fill="none" xmlns="http://www.w3.org/2000/svg">
<g filter="url(#filter0_d_73_8)">
<rect x="67" y="41" width="140" height="140" rx="70" fill="white" shape-rendering="crispEdges"/>
<g filter="url(#filter1_d_73_8)">
<rect x="77" y="157" width="30" height="30" rx="15" fill="white" shape-rendering="crispEdges"/>
<rect x="77.5" y="157.5" width="29" height="29" rx="14.5" stroke="#E8E8E8" shape-rendering="crispEdges"/>
<path d="M91.9092 179.79C91.0985 179.79 90.3679 179.598 89.7172 179.214C89.0665 178.83 88.5759 178.318 88.2452 177.678L89.1252 176.91C89.4239 177.401 89.8185 177.796 90.3092 178.094C90.8105 178.393 91.3492 178.542 91.9252 178.542C92.4159 178.542 92.8532 178.436 93.2372 178.222C93.6212 178.009 93.9252 177.716 94.1492 177.342C94.3732 176.958 94.4852 176.521 94.4852 176.03C94.4852 175.55 94.3732 175.129 94.1492 174.766C93.9359 174.404 93.6425 174.121 93.2692 173.918C92.9065 173.716 92.4959 173.614 92.0372 173.614C91.5785 173.614 91.1465 173.716 90.7412 173.918C90.3465 174.121 90.0212 174.409 89.7652 174.782H88.5012L89.7812 168.27H95.3012V169.566H90.8212L90.1332 173.182C90.3679 172.937 90.6612 172.745 91.0132 172.606C91.3759 172.457 91.7759 172.382 92.2132 172.382C92.9172 172.382 93.5465 172.537 94.1012 172.846C94.6665 173.156 95.1092 173.582 95.4292 174.126C95.7599 174.67 95.9252 175.3 95.9252 176.014C95.9252 176.761 95.7439 177.417 95.3812 177.982C95.0292 178.558 94.5492 179.001 93.9412 179.31C93.3332 179.63 92.6559 179.79 91.9092 179.79Z" fill="#212529"/>
</g>
<path d="M167.701 116.382C166.02 114.9 162.797 114.431 159.491 115.19C159.029 115.296 158.57 115.425 158.126 115.573C157.454 115.799 156.898 116.12 156.369 116.589L146.934 124.964C146.31 125.52 145.583 125.802 144.774 125.807L145.037 123.647C145.3 121.477 143.748 119.501 141.577 119.239L125.851 117.335C124.883 117.217 124.021 117.351 123.135 117.753L116.539 120.754L116.447 119.587C116.388 118.848 116.044 118.172 115.473 117.686C114.905 117.201 114.184 116.966 113.44 117.025L107.576 117.485C106.041 117.605 104.888 118.951 105.009 120.484L106.735 142.429C106.793 143.169 107.137 143.844 107.708 144.33C108.217 144.766 108.855 145 109.518 145C109.591 145 109.666 144.997 109.739 144.992L115.605 144.531C117.14 144.411 118.293 143.065 118.172 141.533L118.038 139.827L126.103 137.418L140.87 139.207C142.355 139.389 143.734 138.956 144.853 137.965L167.706 117.683C167.894 117.519 168 117.281 168 117.033C167.997 116.785 167.888 116.547 167.701 116.382ZM115.468 142.797L109.602 143.258C109.325 143.28 109.054 143.191 108.839 143.007C108.623 142.822 108.494 142.571 108.472 142.292L106.746 120.35C106.724 120.073 106.813 119.802 106.998 119.587C107.183 119.372 107.434 119.244 107.714 119.222L113.58 118.761C113.857 118.739 114.128 118.828 114.343 119.012C114.559 119.197 114.688 119.448 114.71 119.727L116.248 139.269V139.277L116.436 141.673C116.478 142.245 116.044 142.753 115.468 142.797ZM143.692 136.664C142.948 137.326 142.067 137.599 141.077 137.479L126.131 135.667C126.011 135.653 125.891 135.662 125.776 135.698L117.899 138.051L116.685 122.6L123.86 119.333C124.45 119.065 124.999 118.979 125.645 119.057L141.371 120.961C142.588 121.109 143.458 122.217 143.312 123.432L143.044 125.637L132.895 124.409C132.417 124.35 131.983 124.691 131.925 125.168C131.866 125.645 132.207 126.078 132.685 126.137L143.698 127.471C143.701 127.471 143.704 127.471 143.709 127.474H143.712C143.718 127.474 143.726 127.477 143.732 127.477L144.269 127.527C145.701 127.658 147.027 127.223 148.104 126.268L157.542 117.893C157.897 117.577 158.244 117.376 158.695 117.225C159.083 117.094 159.486 116.983 159.895 116.888C162.11 116.38 164.289 116.494 165.702 117.145L143.692 136.664ZM110.74 120.207C110.061 120.26 109.445 120.573 109 121.092C108.558 121.609 108.343 122.268 108.396 122.943C108.5 124.275 109.621 125.288 110.936 125.288C111.003 125.288 111.07 125.285 111.138 125.28C112.539 125.171 113.591 123.943 113.479 122.544C113.373 121.145 112.142 120.096 110.74 120.207ZM111.003 123.546C110.561 123.58 110.172 123.25 110.136 122.806C110.119 122.591 110.187 122.385 110.326 122.22C110.466 122.058 110.662 121.958 110.877 121.941C111.319 121.907 111.708 122.237 111.745 122.681C111.778 123.125 111.445 123.513 111.003 123.546ZM126.475 102.346H128.256C128.547 103.265 128.917 104.158 129.364 105.012L128.103 106.271C127.389 106.983 127.389 108.142 128.103 108.854L132.556 113.298C132.9 113.641 133.359 113.831 133.851 113.831C134.341 113.831 134.799 113.641 135.146 113.298L136.408 112.039C137.266 112.486 138.159 112.857 139.079 113.145V114.923C139.079 115.931 139.901 116.749 140.908 116.749H147.208C148.218 116.749 149.037 115.928 149.037 114.923V113.145C149.958 112.854 150.853 112.486 151.709 112.039L152.97 113.298C153.314 113.641 153.773 113.831 154.265 113.831C154.755 113.831 155.214 113.641 155.561 113.298L160.017 108.854C160.73 108.142 160.73 106.983 160.017 106.271L158.755 105.012C159.203 104.155 159.575 103.265 159.863 102.346H161.645C162.654 102.346 163.474 101.526 163.474 100.521V94.2337C163.474 93.2259 162.652 92.4079 161.645 92.4079H159.863C159.572 91.4894 159.203 90.5961 158.755 89.7418L160.017 88.4828C160.73 87.7709 160.73 86.6124 160.017 85.9005L155.563 81.4561C155.219 81.1128 154.76 80.9229 154.268 80.9229C153.779 80.9229 153.32 81.1128 152.973 81.4561L151.712 82.7152C150.853 82.2685 149.96 81.8972 149.04 81.6096V79.8313C149.037 78.8207 148.218 78 147.208 78H140.908C139.899 78 139.079 78.8207 139.079 79.8258V81.6041C138.159 81.8916 137.264 82.2629 136.408 82.7096L135.146 81.4506C134.433 80.7387 133.272 80.7387 132.559 81.4506L128.103 85.8977C127.389 86.6096 127.389 87.7682 128.103 88.48L129.364 89.7391C128.917 90.5933 128.545 91.4866 128.256 92.4051H126.475C125.465 92.4051 124.645 93.2259 124.645 94.2309V100.518C124.642 101.526 125.465 102.346 126.475 102.346ZM126.388 94.2334C126.388 94.1887 126.43 94.1469 126.475 94.1469H128.911C129.305 94.1469 129.649 93.8844 129.753 93.5048C130.083 92.2904 130.57 91.1179 131.202 90.0208C131.398 89.6802 131.342 89.2503 131.062 88.9711L129.336 87.2486C129.305 87.2179 129.305 87.1592 129.336 87.1257L133.792 82.6814C133.823 82.6506 133.882 82.6506 133.912 82.6814L135.635 84.401C135.915 84.6774 136.346 84.736 136.687 84.5406C137.787 83.9097 138.961 83.4239 140.178 83.0945C140.559 82.9912 140.822 82.6478 140.822 82.2542L140.824 79.8255C140.824 79.7808 140.866 79.7389 140.911 79.7389H147.211C147.255 79.7389 147.297 79.7808 147.297 79.8255V82.257C147.297 82.6506 147.56 82.994 147.941 83.0973C149.157 83.4267 150.332 83.9124 151.432 84.5434C151.773 84.7388 152.204 84.6829 152.483 84.4038L154.206 82.6841C154.246 82.6451 154.288 82.6451 154.33 82.6841L158.783 87.1285C158.814 87.1592 158.814 87.2178 158.783 87.2513L157.06 88.971C156.783 89.2474 156.724 89.6801 156.92 90.0207C157.552 91.1178 158.039 92.2903 158.369 93.5075C158.472 93.8871 158.816 94.1496 159.211 94.1496H161.644C161.689 94.1496 161.731 94.1914 161.731 94.2361V100.523C161.731 100.568 161.689 100.61 161.644 100.61H159.208C158.814 100.61 158.47 100.872 158.366 101.252C158.036 102.466 157.549 103.638 156.917 104.736C156.721 105.076 156.777 105.506 157.057 105.785L158.78 107.505C158.811 107.536 158.811 107.594 158.78 107.625L154.324 112.072C154.285 112.111 154.243 112.111 154.204 112.072L152.481 110.353C152.201 110.076 151.77 110.018 151.429 110.213C150.329 110.844 149.155 111.33 147.938 111.659C147.557 111.762 147.294 112.106 147.294 112.499V114.928C147.294 114.973 147.253 115.015 147.208 115.015H140.908C140.864 115.015 140.822 114.973 140.822 114.928V112.496C140.822 112.103 140.559 111.76 140.178 111.656C138.961 111.327 137.787 110.841 136.687 110.21C136.55 110.132 136.402 110.096 136.254 110.096C136.027 110.096 135.803 110.182 135.636 110.35L133.912 112.069C133.873 112.108 133.831 112.108 133.792 112.069L129.336 107.622C129.305 107.591 129.305 107.533 129.336 107.502L131.059 105.783C131.336 105.506 131.395 105.073 131.199 104.733C130.567 103.636 130.08 102.463 129.75 101.249C129.647 100.869 129.303 100.607 128.908 100.607H126.475C126.43 100.607 126.388 100.565 126.388 100.52L126.388 94.2334ZM144.058 109.839C150.945 109.839 156.548 104.247 156.548 97.3744C156.548 90.5015 150.945 84.9098 144.058 84.9098C137.171 84.9098 131.569 90.5015 131.569 97.3744C131.569 104.247 137.172 109.839 144.058 109.839ZM144.058 86.6515C149.983 86.6515 154.803 91.4616 154.803 97.3744C154.803 103.29 149.983 108.1 144.058 108.1C138.134 108.1 133.314 103.29 133.314 97.3772C133.314 91.4617 138.134 86.6515 144.058 86.6515ZM138.24 98.6386C137.927 98.2729 137.971 97.723 138.338 97.4131C138.704 97.1004 139.255 97.1451 139.566 97.5108L142.302 100.71L148.506 92.1284C148.788 91.7375 149.331 91.651 149.723 91.9329C150.114 92.2149 150.201 92.7564 149.918 93.1473L143.065 102.628C142.909 102.846 142.66 102.977 142.394 102.988H142.357C142.103 102.988 141.86 102.877 141.695 102.684L138.24 98.6386Z" fill="black"/>
</g>
<defs>
<filter id="filter0_d_73_8" x="0" y="0" width="290" height="296" filterUnits="userSpaceOnUse" color-interpolation-filters="sRGB">
<feFlood flood-opacity="0" result="BackgroundImageFix"/>
<feColorMatrix in="SourceAlpha" type="matrix" values="0 0 0 0 0 0 0 0 0 0 0 0 0 0 0 0 0 0 127 0" result="hardAlpha"/>
<feOffset dx="8" dy="34"/>
<feGaussianBlur stdDeviation="37.5"/>
<feComposite in2="hardAlpha" operator="out"/>
<feColorMatrix type="matrix" values="0 0 0 0 0.0588235 0 0 0 0 0.054902 0 0 0 0 0.054902 0 0 0 0.25 0"/>
<feBlend mode="normal" in2="BackgroundImageFix" result="effect1_dropShadow_73_8"/>
<feBlend mode="normal" in="SourceGraphic" in2="effect1_dropShadow_73_8" result="shape"/>
</filter>
<filter id="filter1_d_73_8" x="10" y="116" width="180" height="180" filterUnits="userSpaceOnUse" color-interpolation-filters="sRGB">
<feFlood flood-opacity="0" result="BackgroundImageFix"/>
<feColorMatrix in="SourceAlpha" type="matrix" values="0 0 0 0 0 0 0 0 0 0 0 0 0 0 0 0 0 0 127 0" result="hardAlpha"/>
<feOffset dx="8" dy="34"/>
<feGaussianBlur stdDeviation="37.5"/>
<feComposite in2="hardAlpha" operator="out"/>
<feColorMatrix type="matrix" values="0 0 0 0 0.0588235 0 0 0 0 0.054902 0 0 0 0 0.054902 0 0 0 0.25 0"/>
<feBlend mode="normal" in2="BackgroundImageFix" result="effect1_dropShadow_73_8"/>
<feBlend mode="normal" in="SourceGraphic" in2="effect1_dropShadow_73_8" result="shape"/>
</filter>
</defs>
</svg>
