<svg width="290" height="301" viewBox="0 0 290 301" fill="none" xmlns="http://www.w3.org/2000/svg">
<g filter="url(#filter0_d_73_5)">
<rect x="67" y="41" width="140" height="140" rx="70" fill="white" shape-rendering="crispEdges"/>
<g filter="url(#filter1_d_73_5)">
<rect x="77" y="162" width="30" height="30" rx="15" fill="white" shape-rendering="crispEdges"/>
<rect x="77.5" y="162.5" width="29" height="29" rx="14.5" stroke="#E8E8E8" shape-rendering="crispEdges"/>
<path d="M88.5067 182.406C88.5067 181.98 88.5387 181.58 88.6027 181.206C88.6774 180.833 88.8054 180.476 88.9868 180.134C89.1787 179.793 89.4454 179.468 89.7867 179.158C90.1281 178.838 90.5707 178.529 91.1148 178.23C91.4348 178.049 91.7548 177.878 92.0747 177.718C92.4054 177.558 92.7094 177.388 92.9868 177.206C93.2748 177.025 93.5041 176.828 93.6748 176.614C93.8454 176.39 93.9308 176.134 93.9308 175.846C93.9308 175.601 93.8561 175.366 93.7068 175.142C93.5681 174.908 93.3548 174.721 93.0668 174.582C92.7894 174.433 92.4428 174.358 92.0268 174.358C91.7068 174.358 91.4134 174.401 91.1467 174.486C90.8908 174.572 90.6561 174.684 90.4427 174.822C90.2401 174.95 90.0588 175.089 89.8988 175.238C89.7494 175.377 89.6214 175.505 89.5148 175.622L88.6347 174.63C88.7201 174.534 88.8641 174.406 89.0667 174.246C89.2694 174.076 89.5254 173.905 89.8347 173.734C90.1441 173.564 90.5014 173.42 90.9067 173.302C91.3228 173.174 91.7761 173.11 92.2668 173.11C92.9281 173.11 93.4934 173.228 93.9627 173.462C94.4428 173.686 94.8108 173.996 95.0668 174.39C95.3228 174.774 95.4508 175.206 95.4508 175.686C95.4508 176.102 95.3601 176.465 95.1788 176.774C95.0081 177.084 94.7841 177.356 94.5068 177.59C94.2401 177.825 93.9574 178.028 93.6588 178.198C93.3708 178.358 93.1094 178.497 92.8748 178.614C92.3948 178.849 91.9841 179.062 91.6428 179.254C91.3014 179.446 91.0188 179.638 90.7947 179.83C90.5814 180.012 90.4054 180.204 90.2668 180.406C90.1387 180.609 90.0427 180.849 89.9787 181.126H95.6268V182.406H88.5067Z" fill="#212529"/>
</g>
<path d="M169.34 100.262L166.888 98.8496C166.119 98.407 165.2 98.2823 164.371 98.5067C163.605 98.7125 162.973 99.1925 162.595 99.8533L161.082 102.465C161.075 102.472 161.072 102.478 161.069 102.487C161.066 102.493 161.063 102.503 161.057 102.509L158.674 106.623L158.668 94.4642C158.668 92.6626 157.198 91.1975 155.391 91.1975H146.77C146.773 91.1072 146.773 91.0168 146.773 90.9264C146.773 84.7205 141.711 79.6681 135.485 79.6681C129.259 79.6681 124.191 84.7176 124.191 90.9264C124.191 91.0168 124.194 91.1072 124.194 91.1975H115.576C113.766 91.1975 112.293 92.6625 112.293 94.4642V137.192H105.361C104.06 137.192 103 138.248 103 139.545V144.576C103 148.12 105.892 151 109.444 151H152.217C155.772 151 158.661 148.117 158.661 144.576L158.667 125.104L170.622 104.47C171.45 103.03 170.872 101.141 169.34 100.262L169.34 100.262ZM164.734 101.081C164.803 100.966 164.921 100.91 165.012 100.888C165.212 100.835 165.444 100.869 165.65 100.988L168.105 102.403C168.486 102.621 168.605 103.023 168.48 103.244L167.573 104.809L163.827 102.652L164.734 101.081ZM154.615 127.165L153.818 126.706L165.531 106.48L166.335 106.941L154.615 127.165ZM150.738 129.549L150.594 127.704L152.414 128.751L150.738 129.549ZM162.589 104.788L163.386 105.249L151.673 125.476L150.869 125.014L162.589 104.788ZM135.486 82.1335C140.345 82.1335 144.3 86.0765 144.3 90.9237C144.3 94.0968 143.115 95.4184 141.477 97.2449C141.208 97.5442 140.93 97.8559 140.652 98.1832C139.979 98.9655 139.491 99.8258 139.191 100.752H138.663V93.5171H139.026C140.592 93.5171 141.868 92.2453 141.868 90.6837C141.868 89.1253 140.592 87.8535 139.026 87.8535C137.462 87.8535 136.186 89.1221 136.186 90.6837V91.0515H134.792V90.6837C134.792 89.1253 133.516 87.8535 131.95 87.8535C130.38 87.8535 129.107 89.1221 129.107 90.6837C129.107 92.2453 130.383 93.5171 131.95 93.5171H132.318V100.752H131.784C131.484 99.8227 130.996 98.9655 130.324 98.1864C130.039 97.856 129.761 97.5411 129.489 97.2388C128.119 95.7114 127.069 94.5364 126.762 92.3389C126.759 92.2891 126.753 92.2423 126.743 92.1924C126.696 91.8028 126.671 91.3851 126.671 90.9239C126.665 86.077 130.62 82.1335 135.486 82.1335ZM138.822 103.22V104.146H132.14V103.22H138.822ZM132.312 91.0514H131.943C131.743 91.0514 131.574 90.883 131.574 90.6836C131.574 90.4872 131.743 90.322 131.943 90.322C132.143 90.322 132.312 90.4872 132.312 90.6836V91.0514ZM134.785 93.52H136.18V100.755H134.785V93.52ZM138.184 106.614C137.7 107.179 136.98 107.537 136.177 107.537H134.785C133.982 107.537 133.266 107.178 132.778 106.614H138.184ZM138.656 91.0512V90.6834C138.656 90.487 138.822 90.3218 139.019 90.3218C139.219 90.3218 139.388 90.487 139.388 90.6834C139.388 90.8829 139.219 91.0512 139.019 91.0512H138.656ZM109.449 148.528C107.26 148.528 105.478 146.751 105.478 144.57V139.654H145.783V144.57C145.783 146.063 146.296 147.437 147.152 148.528H109.449ZM122.694 135.409C122.535 134.801 122.081 134.324 121.478 134.128L120.396 133.779V132.654L121.481 132.301C122.084 132.105 122.541 131.625 122.694 131.023C122.891 130.278 123.188 129.558 123.588 128.876C123.898 128.333 123.914 127.679 123.632 127.127L123.116 126.111L123.914 125.316L124.927 125.834C125.496 126.123 126.156 126.102 126.7 125.781C127.362 125.394 128.082 125.098 128.835 124.902L128.851 124.898C129.461 124.73 129.923 124.291 130.12 123.692L130.474 122.611H131.602L131.956 123.692C132.15 124.288 132.612 124.727 133.225 124.895L133.241 124.898C133.998 125.098 134.717 125.394 135.37 125.778C135.914 126.102 136.58 126.12 137.143 125.834L138.163 125.316L138.96 126.111L138.441 127.124C138.438 127.13 138.435 127.136 138.431 127.143C138.156 127.704 138.178 128.333 138.491 128.882C138.885 129.555 139.185 130.272 139.379 131.011C139.535 131.622 139.989 132.102 140.595 132.298L141.68 132.65V133.776L140.595 134.125C139.995 134.321 139.541 134.798 139.382 135.406C139.223 136.02 138.988 136.615 138.688 137.189H135.53C136.474 136.129 137.049 134.739 137.049 133.215C137.049 129.914 134.354 127.227 131.04 127.227C127.728 127.227 125.033 129.914 125.033 133.215C125.033 134.739 125.608 136.132 126.549 137.189H123.391C123.088 136.618 122.854 136.02 122.694 135.409ZM127.503 133.215C127.503 131.273 129.089 129.696 131.033 129.696C132.985 129.696 134.57 131.276 134.57 133.215C134.57 135.16 132.985 136.74 131.033 136.74C129.089 136.74 127.503 135.157 127.503 133.215ZM152.224 148.528C150.038 148.528 148.259 146.751 148.259 144.57V139.539C148.259 138.242 147.199 137.185 145.899 137.185H141.402C141.508 136.914 141.602 136.643 141.684 136.366L142.894 135.976C143.65 135.727 144.157 135.025 144.157 134.234V132.192C144.157 131.388 143.641 130.683 142.884 130.447L141.68 130.057C141.462 129.324 141.165 128.614 140.799 127.941L141.368 126.828C141.74 126.117 141.605 125.257 141.036 124.686L139.589 123.243C139.026 122.682 138.169 122.545 137.45 122.903L136.324 123.477C135.655 123.115 134.945 122.822 134.207 122.604L133.816 121.404C133.566 120.647 132.866 120.139 132.065 120.139H130.017C129.22 120.139 128.517 120.647 128.266 121.407L127.876 122.607C127.138 122.826 126.425 123.119 125.752 123.48L124.62 122.903C123.908 122.548 123.054 122.688 122.491 123.249L121.043 124.693C120.474 125.26 120.34 126.12 120.706 126.822L121.278 127.947C120.912 128.62 120.618 129.325 120.399 130.057L119.205 130.447C118.442 130.687 117.926 131.388 117.926 132.195V134.237C117.926 135.032 118.435 135.736 119.202 135.982L120.399 136.369C120.48 136.646 120.577 136.917 120.681 137.189H114.774L114.771 94.4642C114.771 94.0309 115.14 93.6631 115.578 93.6631H124.499C125.074 96.0195 126.372 97.4689 127.638 98.881C127.901 99.174 128.17 99.4732 128.439 99.788C129.277 100.764 129.668 101.82 129.668 103.111V104.9C129.668 105.102 129.68 105.305 129.705 105.501C129.705 105.508 129.708 105.517 129.708 105.523C130.018 108.045 132.178 110.002 134.789 110.002H136.181C138.795 110.002 140.952 108.042 141.262 105.52C141.262 105.514 141.265 105.508 141.265 105.501C141.287 105.305 141.303 105.102 141.303 104.9V103.111C141.303 101.82 141.693 100.764 142.535 99.788C142.797 99.4794 143.066 99.1802 143.326 98.8934C144.595 97.4783 145.896 96.0258 146.471 93.6662H155.395C155.839 93.6662 156.198 94.0247 156.198 94.4673V110.897L148.159 124.758C148.147 124.78 148.134 124.802 148.125 124.82C147.997 125.079 147.94 125.353 147.956 125.637C147.956 125.643 147.956 125.65 147.959 125.656L148.366 130.93C148.403 131.469 148.71 131.955 149.191 132.229C149.451 132.376 149.735 132.451 150.02 132.451C150.261 132.451 150.501 132.398 150.72 132.289L155.514 130.004C155.52 130.001 155.526 129.998 155.532 129.995C155.883 129.82 156.083 129.571 156.195 129.371V144.566C156.195 146.755 154.413 148.528 152.224 148.528ZM134.066 77.0776V73.2343C134.066 72.5517 134.62 72 135.305 72C135.989 72 136.543 72.5517 136.543 73.2343V77.0776C136.543 77.7602 135.989 78.3119 135.305 78.3119C134.62 78.3119 134.066 77.7602 134.066 77.0776ZM141.202 78.2277L143.131 74.8988C143.472 74.3097 144.229 74.1071 144.823 74.4468C145.414 74.7866 145.617 75.5409 145.276 76.1331L143.347 79.4621C143.118 79.8579 142.703 80.0792 142.274 80.0792C142.065 80.0792 141.852 80.0262 141.655 79.914C141.061 79.5712 140.858 78.8169 141.202 78.2277ZM146.352 84.4648C146.011 83.8757 146.211 83.1214 146.802 82.7785L150.141 80.8553C150.732 80.5155 151.489 80.715 151.833 81.3041C152.174 81.8932 151.974 82.6476 151.383 82.9904L148.043 84.9136C147.849 85.0258 147.634 85.0788 147.424 85.0788C146.996 85.082 146.58 84.8606 146.352 84.4648ZM125.336 76.1334C124.995 75.5443 125.195 74.79 125.786 74.4471C126.377 74.1074 127.134 74.3069 127.478 74.896L129.407 78.2249C129.748 78.814 129.548 79.5684 128.957 79.9112C128.763 80.0235 128.547 80.0764 128.338 80.0764C127.91 80.0764 127.494 79.8551 127.265 79.4593L125.336 76.1334ZM118.776 81.3076C119.117 80.7185 119.874 80.5159 120.468 80.8557L123.807 82.7789C124.398 83.1186 124.601 83.8729 124.257 84.4652C124.029 84.861 123.613 85.0823 123.185 85.0823C122.975 85.0823 122.763 85.0294 122.566 84.9172L119.226 82.9939C118.635 82.6511 118.435 81.8968 118.776 81.3076ZM151.805 114.201H119.161C118.476 114.201 117.923 113.65 117.923 112.967C117.923 112.284 118.476 111.733 119.161 111.733H151.808C152.493 111.733 153.046 112.284 153.046 112.967C153.043 113.65 152.49 114.201 151.805 114.201ZM136.721 117.056C136.721 117.739 136.167 118.291 135.483 118.291H119.16C118.476 118.291 117.922 117.739 117.922 117.056C117.922 116.374 118.476 115.822 119.16 115.822H135.486C136.168 115.825 136.721 116.377 136.721 117.056Z" fill="black"/>
</g>
<defs>
<filter id="filter0_d_73_5" x="0" y="0" width="290" height="301" filterUnits="userSpaceOnUse" color-interpolation-filters="sRGB">
<feFlood flood-opacity="0" result="BackgroundImageFix"/>
<feColorMatrix in="SourceAlpha" type="matrix" values="0 0 0 0 0 0 0 0 0 0 0 0 0 0 0 0 0 0 127 0" result="hardAlpha"/>
<feOffset dx="8" dy="34"/>
<feGaussianBlur stdDeviation="37.5"/>
<feComposite in2="hardAlpha" operator="out"/>
<feColorMatrix type="matrix" values="0 0 0 0 0.0588235 0 0 0 0 0.054902 0 0 0 0 0.054902 0 0 0 0.25 0"/>
<feBlend mode="normal" in2="BackgroundImageFix" result="effect1_dropShadow_73_5"/>
<feBlend mode="normal" in="SourceGraphic" in2="effect1_dropShadow_73_5" result="shape"/>
</filter>
<filter id="filter1_d_73_5" x="10" y="121" width="180" height="180" filterUnits="userSpaceOnUse" color-interpolation-filters="sRGB">
<feFlood flood-opacity="0" result="BackgroundImageFix"/>
<feColorMatrix in="SourceAlpha" type="matrix" values="0 0 0 0 0 0 0 0 0 0 0 0 0 0 0 0 0 0 127 0" result="hardAlpha"/>
<feOffset dx="8" dy="34"/>
<feGaussianBlur stdDeviation="37.5"/>
<feComposite in2="hardAlpha" operator="out"/>
<feColorMatrix type="matrix" values="0 0 0 0 0.0588235 0 0 0 0 0.054902 0 0 0 0 0.054902 0 0 0 0.25 0"/>
<feBlend mode="normal" in2="BackgroundImageFix" result="effect1_dropShadow_73_5"/>
<feBlend mode="normal" in="SourceGraphic" in2="effect1_dropShadow_73_5" result="shape"/>
</filter>
</defs>
</svg>
